<svg width="24" height="22" viewBox="0 0 24 22" fill="none" xmlns="http://www.w3.org/2000/svg">
<path fill-rule="evenodd" clip-rule="evenodd" d="M12.4393 0.939179C12.7206 0.657972 13.1021 0.5 13.4998 0.5C13.8976 0.5 14.279 0.657973 14.5603 0.939179L23.5603 9.93918C23.8415 10.2205 23.9995 10.6019 23.9995 10.9997C23.9995 11.3974 23.8415 11.7789 23.5603 12.0602L14.5603 21.0602C14.2774 21.3334 13.8985 21.4846 13.5052 21.4812C13.1119 21.4778 12.7357 21.32 12.4576 21.0419C12.1795 20.7638 12.0217 20.3876 12.0183 19.9943C12.0149 19.601 12.1661 19.2221 12.4393 18.9392L18.8788 12.4997L1.49983 12.4997C1.10201 12.4997 0.720476 12.3416 0.43917 12.0603C0.157865 11.779 -0.000168323 11.3975 -0.000168306 10.9997C-0.000168288 10.6019 0.157865 10.2203 0.43917 9.93902C0.720476 9.65771 1.10201 9.49968 1.49983 9.49968L18.8788 9.49968L12.4393 3.06018C12.1581 2.77889 12.0002 2.39743 12.0002 1.99968C12.0002 1.60193 12.1581 1.22047 12.4393 0.939179Z" fill="black"/>
</svg>
