<svg width="19" height="21" viewBox="0 0 19 21" fill="none" xmlns="http://www.w3.org/2000/svg">
<path d="M1.94265 7.11598C2.16534 6.88164 2.46733 6.75 2.78222 6.75C3.0971 6.75 3.39909 6.88164 3.62178 7.11598L9.4999 13.3035L15.378 7.11598C15.602 6.88829 15.902 6.76229 16.2133 6.76514C16.5247 6.76799 16.8225 6.89945 17.0427 7.13121C17.2629 7.36297 17.3877 7.67649 17.3905 8.00423C17.3932 8.33198 17.2735 8.64773 17.0572 8.88348L10.3395 15.9547C10.1168 16.1891 9.81479 16.3207 9.4999 16.3207C9.18502 16.3207 8.88303 16.1891 8.66034 15.9547L1.94265 8.88348C1.72003 8.64907 1.59497 8.33119 1.59497 7.99973C1.59497 7.66828 1.72003 7.35039 1.94265 7.11598Z" fill="black"/>
</svg>
