<svg width="100" height="100" viewBox="0 0 100 100" fill="none" xmlns="http://www.w3.org/2000/svg">
<path d="M50 0C22.3859 0 0 22.3859 0 50C0 77.6156 22.3859 100 50 100C77.6156 100 100 77.6156 100 50C100 22.3859 77.6156 0 50 0ZM50 93.8484C25.8766 93.8484 6.25 74.1234 6.25 49.9998C6.25 25.8764 25.8766 6.2498 50 6.2498C74.1234 6.2498 93.75 25.8765 93.75 49.9998C93.75 74.1231 74.1234 93.8484 50 93.8484ZM69.9547 31.7047L40.6187 61.225L27.4077 48.0141C26.1874 46.7937 24.2093 46.7937 22.9874 48.0141C21.7671 49.2344 21.7671 51.2125 22.9874 52.4328L38.4546 67.9016C39.6749 69.1203 41.653 69.1203 42.8749 67.9016C43.0155 67.7609 43.1359 67.6077 43.2453 67.4484L74.3766 36.1249C75.5953 34.9046 75.5953 32.9265 74.3766 31.7047C73.1547 30.4844 71.1766 30.4844 69.9547 31.7047Z" fill="#630A0E"/>
</svg>
